<?xml version="1.0" standalone="no"?><svg xmlns="http://www.w3.org/2000/svg" viewBox="0 0 1440 320"><path fill="#f3f4f5" fill-opacity="1" d="M0,256L7.7,218.7C15.5,181,31,107,46,64C61.9,21,77,11,93,42.7C108.4,75,124,149,139,197.3C154.8,245,170,267,186,256C201.3,245,217,203,232,176C247.7,149,263,139,279,122.7C294.2,107,310,85,325,90.7C340.6,96,356,128,372,165.3C387.1,203,403,245,418,272C433.5,299,449,309,465,282.7C480,256,495,192,511,160C526.5,128,542,128,557,144C572.9,160,588,192,604,176C619.4,160,635,96,650,80C665.8,64,681,96,697,96C712.3,96,728,64,743,58.7C758.7,53,774,75,790,112C805.2,149,821,203,836,213.3C851.6,224,867,192,883,176C898.1,160,914,160,929,181.3C944.5,203,960,245,975,266.7C991,288,1006,288,1022,261.3C1037.4,235,1053,181,1068,138.7C1083.9,96,1099,64,1115,64C1130.3,64,1146,96,1161,144C1176.8,192,1192,256,1208,288C1223.2,320,1239,320,1254,277.3C1269.7,235,1285,149,1301,101.3C1316.1,53,1332,43,1347,80C1362.6,117,1378,203,1394,197.3C1409,192,1425,96,1432,48L1440,0L1440,320L1432.3,320C1424.5,320,1409,320,1394,320C1378.1,320,1363,320,1347,320C1331.6,320,1316,320,1301,320C1285.2,320,1270,320,1254,320C1238.7,320,1223,320,1208,320C1192.3,320,1177,320,1161,320C1145.8,320,1130,320,1115,320C1099.4,320,1084,320,1068,320C1052.9,320,1037,320,1022,320C1006.5,320,991,320,975,320C960,320,945,320,929,320C913.5,320,898,320,883,320C867.1,320,852,320,836,320C820.6,320,805,320,790,320C774.2,320,759,320,743,320C727.7,320,712,320,697,320C681.3,320,666,320,650,320C634.8,320,619,320,604,320C588.4,320,573,320,557,320C541.9,320,526,320,511,320C495.5,320,480,320,465,320C449,320,434,320,418,320C402.6,320,387,320,372,320C356.1,320,341,320,325,320C309.7,320,294,320,279,320C263.2,320,248,320,232,320C216.8,320,201,320,186,320C170.3,320,155,320,139,320C123.9,320,108,320,93,320C77.4,320,62,320,46,320C31,320,15,320,8,320L0,320Z"></path></svg>